<svg height="2rem" style="height:2rem;" version="1.1" id="Calque_1" xmlns="http://www.w3.org/2000/svg" xmlns:xlink="http://www.w3.org/1999/xlink" x="0px" y="0px" viewBox="0 83.334 595.28 630.704" enable-background="new 0 83.334 595.28 630.704" xml:space="preserve">
    <g>
        <path fill="#FFFFFF" d="M574.035,310.556H311.04v142.751h262.995c11.687,0,21.161-9.474,21.161-21.161V331.717
            C595.196,320.03,585.722,310.556,574.035,310.556z"></path>
        <path fill="#FFFFFF" d="M0.196,331.717v100.429c0,11.687,9.474,21.161,21.161,21.161H277.98V310.556H21.357
            C9.67,310.556,0.196,320.03,0.196,331.717z"></path>
        <path fill="#FFFFFF" d="M36.843,691.386c0,11.687,9.474,21.161,21.161,21.161H277.98V470.081H36.843V691.386z"></path>
        <path fill="#FFFFFF" d="M311.04,712.547h219.976c11.687,0,21.161-9.474,21.161-21.161V470.081H311.04V712.547z"></path>
        <path fill="#FFFFFF" d="M375.67,287.202c48.925-0.001,81.758-6.524,100.318-19.925c21.909-15.82,36.346-39.224,40.652-65.903
            c4.304-26.678-2.037-53.436-17.857-75.345c-15.819-21.908-39.223-36.345-65.902-40.65c-26.683-4.307-53.438,2.036-75.344,17.855
            c-18.809,13.582-35.521,43.292-51.089,90.828c-3.39,10.35-6.32,20.333-8.753,29.186c-2.432-8.853-5.363-18.835-8.752-29.185
            c-15.568-47.536-32.279-77.247-51.088-90.828c-45.225-32.657-108.591-22.43-141.247,22.795
            c-15.82,21.909-22.161,48.666-17.856,75.345c4.306,26.678,18.743,50.083,40.651,65.903c18.562,13.402,51.388,19.925,100.318,19.925
            c0.653,0,1.311-0.001,1.97-0.004c34.378-0.122,63.881-3.43,65.12-3.57l10.884-1.236l10.884,1.236
            c1.239,0.14,30.743,3.448,65.121,3.57C374.363,287.2,375.013,287.202,375.67,287.202z M145.406,231.266
            c-12.29-8.874-20.389-22.003-22.804-36.969c-2.414-14.966,1.142-29.976,10.017-42.266c11.082-15.347,28.463-23.508,46.086-23.508
            c11.51,0,23.124,3.483,33.148,10.721c3.795,2.74,17.517,15.762,34.76,68.275c4.054,12.349,7.438,24.29,10.032,34.135
            C214.193,244.273,161.383,242.803,145.406,231.266z M383.54,139.244c12.291-8.876,27.299-12.433,42.266-10.016
            c14.965,2.415,28.095,10.514,36.968,22.803c8.875,12.29,12.432,27.3,10.017,42.266c-2.415,14.965-10.514,28.095-22.804,36.969
            c-3.795,2.741-20.42,11.631-75.744,11.517c-12.997-0.036-25.395-0.58-35.557-1.215C349.553,200.448,367.561,150.782,383.54,139.244
            z"></path>
    </g>
    </svg>