<svg height="1.5rem" style="height:1.5rem;" version="1.1" id="Calque_1" xmlns="http://www.w3.org/2000/svg" xmlns:xlink="http://www.w3.org/1999/xlink" x="0px" y="0px" viewBox="0 128.112 595.28 500.704" enable-background="new 0 128.112 595.28 500.704" xml:space="preserve">
      <g>
          <g>
              <g>
                  <path fill="#FFFFFF" d="M491.132,532.17c18.185,0,32.98,14.795,32.98,32.98c0,18.185-14.795,32.98-32.98,32.98
                      c-18.185,0-32.98-14.794-32.98-32.98C458.152,546.965,472.947,532.17,491.132,532.17 M491.132,502.188
                      c-34.773,0-62.962,28.189-62.962,62.962c0,34.773,28.189,62.962,62.962,62.962c34.773,0,62.962-28.189,62.962-62.962
                      C554.094,530.377,525.905,502.188,491.132,502.188L491.132,502.188z"></path>
              </g>
          </g>
          <g>
              <g>
                  <path fill="#FFFFFF" d="M491.132,532.17c18.185,0,32.98,14.795,32.98,32.98c0,18.185-14.795,32.98-32.98,32.98
                      c-18.185,0-32.98-14.794-32.98-32.98C458.152,546.965,472.947,532.17,491.132,532.17 M491.132,502.188
                      c-34.773,0-62.962,28.189-62.962,62.962c0,34.773,28.189,62.962,62.962,62.962c34.773,0,62.962-28.189,62.962-62.962
                      C554.094,530.377,525.905,502.188,491.132,502.188L491.132,502.188z"></path>
              </g>
          </g>
      </g>
      <g>
          <g>
              <g>
                  <path fill="#FFFFFF" d="M89.957,528.226H18.953c-10.1,0-18.288,8.188-18.288,18.288c0,10.1,8.188,18.288,18.288,18.288H78.73
                      C78.733,550.15,83.102,537.03,89.957,528.226z"></path>
              </g>
              <g>
                  <path fill="#FFFFFF" d="M591.929,486.473l-81.394-141.626H387.372v84.358v99.021H130.801
                      c6.855,8.804,11.225,21.924,11.227,36.576h274.247c-0.001-0.167-0.025-0.328-0.025-0.496c0-41.356,33.525-74.882,74.881-74.882
                      c41.356,0,74.882,33.526,74.882,74.882h28.878v-66.729C594.892,493.68,593.87,489.852,591.929,486.473z M420.291,416.101V378.93
                      c0-2.702,2.19-4.892,4.892-4.892h69.08c1.755,0,3.376,0.941,4.247,2.465l64.429,112.751L420.291,416.101z"></path>
              </g>
          </g>
          <g>
              <g>
                  <path fill="#FFFFFF" d="M110.043,532.17c18.185,0,32.98,14.795,32.98,32.98c0,18.185-14.795,32.98-32.98,32.98
                      s-32.98-14.794-32.98-32.98C77.063,546.965,91.858,532.17,110.043,532.17 M110.043,502.188
                      c-34.773,0-62.962,28.189-62.962,62.962c0,34.773,28.189,62.962,62.962,62.962c34.773,0,62.962-28.189,62.962-62.962
                      C173.005,530.377,144.816,502.188,110.043,502.188L110.043,502.188z"></path>
              </g>
          </g>
      </g>
      <g>
          <g>
              <path fill="#FFFFFF" d="M303.953,247.178c43.584,0,71.931-45.867,52.44-84.85l0,0c-10.535-21.069-31.4-32.419-52.552-32.419
                  c-14.783,0-29.705,5.541-41.345,17.182l-60.686,60.686l-60.686-60.686c-11.641-11.641-26.563-17.182-41.345-17.182
                  c-21.152,0.001-42.018,11.351-52.552,32.419h0c-19.491,38.983,8.856,84.85,52.44,84.85L303.953,247.178z M284.165,168.76
                  c6.783-6.782,14.444-8.206,19.676-8.206c8.413,0,19.435,4.066,25.142,15.479c6.297,12.595,1.241,23.236-1.225,27.227
                  c-2.466,3.99-9.722,13.272-23.805,13.272h-67.56L284.165,168.76z M99.666,216.532c-14.082,0-21.339-9.282-23.805-13.272
                  c-2.467-3.99-7.523-14.632-1.225-27.227c5.706-11.412,16.731-15.478,25.147-15.479c5.231,0,12.889,1.425,19.67,8.206
                  l47.772,47.772H99.666z"></path>
          </g>
      </g>
      <g>
          <g>
              <path fill="#FFFFFF" d="M29.862,505.705h10.875c16.295-18.314,40.029-33.379,66.47-33.379s50.176,15.064,66.47,33.379h15.824
                  V354.452H29.862V505.705z"></path>
          </g>
          <g>
              <polygon fill="#FFFFFF" points="29.862,267.29 29.862,329.836 189.501,329.836 189.501,267.29 214.117,267.29 214.117,329.836 
                  363.571,329.836 363.571,267.29 		"></polygon>
          </g>
          <g>
              <rect x="214.117" y="354.452" fill="#FFFFFF" width="149.453" height="151.253"></rect>
          </g>
      </g>
      </svg>