<svg height="1.8rem" style="height:1.8rem;" version="1.1" id="Calque_1" xmlns="http://www.w3.org/2000/svg" xmlns:xlink="http://www.w3.org/1999/xlink" x="0px" y="0px" viewBox="0 55.862 595.28 586.324" enable-background="new 0 55.862 595.28 586.324" xml:space="preserve">
    <g>
        <g>
            <g>
                <g>
                    <path fill="#FFFFFF" d="M69.518,181.349c-21.373,0-41.98,9.574-56.537,26.269c-4.78,5.484-10.048,11.868-12.058,18.249
                        c-1.854,5.88,0.422,12.443,5.532,15.962c2.005,1.382,4.533,2.49,7.209,3.663c1.568,0.687,3.125,1.371,4.618,2.115
                        c3.946,1.964,8.059,4.122,13.334,6.996c9.442,5.221,18.867,11.047,28.059,17.34c39.468,27.012,65.297,55.608,78.961,87.418
                        c8.874,20.658,12.446,43.407,11.582,73.766c-0.973,34.312-7.263,62.591-19.231,86.459
                        c-5.591,11.153-11.531,20.044-18.161,27.182c-1.063,1.141-2.167,2.186-3.264,3.218c-2.014,1.89-3.606,3.383-4.543,5.283
                        c-1.247,2.526-1.716,5.453-1.322,8.243c0.718,5.074,3.846,8.668,10.801,12.4c9.76,5.237,19.716,9.862,27.302,13.302
                        c29.959,13.601,56.53,22.963,81.23,28.619c13.232,3.028,26.872,5.525,40.061,7.94c7.879,1.441,16.025,2.931,24.043,4.528
                        c7.763,1.543,15.532,3.038,23.305,4.533l3.693,0.708c1.766,0.34,3.54,0.689,5.324,1.046c9.832,1.953,20,3.967,29.687,3.967
                        c5.387,0,10.129-0.153,13.618-2.065c3.485-1.907,6.122-5.317,7.057-9.119c2.727-11.111,7.207-22.708,13.312-34.467
                        c3.455-6.649,9.189-15.979,19.063-20.235c2.422-1.044,5.329-1.553,8.883-1.553c1.978,0,3.858,0.148,5.518,0.281l1.16,0.087
                        c7.025,0.505,13.635,2.189,20.349,4.018c10.311,2.805,20.172,6.911,28.457,10.556c4.999,2.199,9.927,4.482,14.652,6.78
                        c1.885,0.917,3.752,1.939,5.62,2.961c2.524,1.385,4.911,2.693,7.28,3.681c5.244,2.194,9.925,1.186,17.515-3.715
                        c6.996-4.518,14.3-9.908,22.987-16.962c13.504-10.971,26.678-23.174,39.151-36.268c1.026-1.077,2.128-2.203,3.269-3.37
                        c12.677-12.958,21.781-23.676,14.38-33.812c-1.213-1.667-2.849-2.662-5.11-4.04c-1.097-0.67-2.218-1.359-3.344-2.138
                        c-3.907-2.703-7.731-5.938-11.371-9.614c-6.702-6.768-11.788-14.848-16.003-25.431l-0.167-0.473
                        c-3.807-12.196-2.837-24.436-1.98-35.239c1.65-20.883,0.134-57.869-28.561-70.908l-7.605-3.455l5.081-6.574
                        c6.2-8.021,13.497-15.776,22.31-23.708c4.198-3.775,8.391-7.553,12.536-11.381l0.335-0.307
                        c4.703-4.343,8.765-8.094,9.726-13.091c0.925-4.8,1.085-9.983,1.257-15.468c0.102-3.299,0.209-6.71,0.495-10.062l0.029-0.352
                        c0.743-8.646,1.507-17.588,3.48-26.36c3.082-15.239,8.838-28.327,17.568-39.874c3.941-5.209,5.115-10.03,3.596-14.743
                        c-1.769-5.484-7.061-9.557-12.871-9.91l-1.189-0.18l-5.445-1.324c-8.857-2.149-18.018-4.37-27.032-6.821
                        c-38.51-10.477-75.807-25.695-110.847-45.233c-24.028-13.403-43.659-27.017-60.014-41.615
                        c-6.727-6.002-13.252-11.95-19.18-18.707c-0.859-0.98-1.708-1.986-2.555-2.992c-4.385-5.2-8.17-9.692-13.708-10.643
                        c-1.199-0.206-2.509-0.309-3.897-0.309c-6.634,0-14.06,2.284-20.446,4.517c-3.725,1.303-7.549,2.814-11.25,4.278l-2.021,0.797
                        c-2.08,0.819-4.108,1.387-6.069,1.937c-1.609,0.45-3.128,0.876-4.504,1.395c-5.697,2.15-9.24,5.621-10.526,10.313
                        c-0.378,1.379-0.386,3.022-0.393,4.928c-0.01,1.984-0.017,4.234-0.468,6.646c-0.662,3.55-1.808,7.268-3.497,11.361
                        c-4.79,11.605-11.747,22.198-21.267,32.385c-9.784,10.411-22.99,16.033-38.209,16.265c-9.837-0.12-19.815-3.084-29.041-8.573
                        c-4.838-2.88-9.158-6.274-12.839-10.085l-0.628-0.639c-1.553-1.583-2.892-2.952-4.365-3.843c-2.218-1.342-4.807-2.05-7.484-2.05
                        c-3.667,0-7.137,1.302-9.77,3.667c-2.109,1.896-3.642,4.454-4.319,7.201c-0.42,1.71-0.25,3.384-0.014,5.699
                        c0.07,0.701,0.143,1.417,0.201,2.154c0.252,3.158,0.122,6.24-0.01,9.219c-0.056,1.332-0.114,2.66-0.131,3.968
                        c-0.097,7.452-0.282,16.108-1.301,24.542l-0.845,7.032l-7.037-1.311c-22.201-4.142-44.518-5.558-67.338-6.757
                        C72.085,181.382,70.8,181.349,69.518,181.349z"></path>
                </g>
            </g>
        </g>
    </g>
    </svg>