<svg height="2rem" style="height:2rem;" version="1.1" id="Calque_1" xmlns="http://www.w3.org/2000/svg" xmlns:xlink="http://www.w3.org/1999/xlink" x="0px" y="0px" viewBox="0 0 595.28 840.056" enable-background="new 0 0 595.28 840.056" xml:space="preserve">
      <g>
          <g>
              <path fill="#FFFFFF" d="M563.304,354.114c4.633-20.53,31.799-39.104,31.799-61.048c0-21.943-27.166-40.516-31.799-61.047
                  c-4.784-21.198,11.579-49.776,2.419-68.902c-9.311-19.441-41.788-24.317-55.025-41.016c-13.302-16.78-10.844-49.742-27.502-63.141
                  c-16.578-13.334-47.915-3.635-67.215-13.015c-18.987-9.227-30.934-40.043-51.978-44.861c-20.381-4.667-44.368,17.77-66.152,17.77
                  S252.08-3.583,231.699,1.084c-21.044,4.818-32.989,35.634-51.976,44.861c-19.299,9.378-50.636-0.321-67.214,13.013
                  c-16.659,13.399-14.201,46.361-27.502,63.141c-13.238,16.699-45.716,21.576-55.027,41.017c-9.16,19.126,7.202,47.705,2.419,68.904
                  c-4.633,20.53-31.8,39.103-31.8,61.047c0,21.943,27.167,40.516,31.8,61.047c4.784,21.199-11.58,49.776-2.42,68.902
                  c9.311,19.441,41.788,24.317,55.025,41.016c13.301,16.78,10.844,49.742,27.502,63.141c16.577,13.334,47.915,3.636,67.215,13.015
                  c18.987,9.227,30.933,40.043,51.978,44.861c20.382,4.667,44.368-17.77,66.152-17.77s45.771,22.437,66.152,17.77
                  c21.044-4.818,32.989-35.634,51.976-44.86c19.299-9.379,50.636,0.32,67.214-13.014c16.659-13.399,14.201-46.361,27.503-63.141
                  c13.237-16.699,45.715-21.576,55.026-41.016C574.882,403.893,558.52,375.313,563.304,354.114z M297.851,514.749
                  c-121.542,0-220.071-99.25-220.071-221.682c0-122.431,98.529-221.682,220.071-221.682c121.542,0,220.071,99.251,220.071,221.682
                  C517.922,415.499,419.393,514.749,297.851,514.749z"></path>
              <path fill="#FFFFFF" d="M415.979,559.102c-18.987,9.226-30.932,40.042-51.976,44.86c-20.381,4.667-44.368-17.771-66.152-17.771
                  s-45.771,22.437-66.152,17.771c-20.666-4.732-32.574-34.485-50.975-44.294l-89.01,249.714l89.74-30.626l57.347,60.253
                  l75.738-212.478l75.737,212.478l57.347-60.253l89.741,30.626l-90.957-255.175C435.455,554.534,424.535,554.944,415.979,559.102z"></path>
          </g>
          <path fill="#FFFFFF" d="M297.851,91.805c-110.346,0-199.799,90.108-199.799,201.261c0,111.155,89.453,201.262,199.799,201.262
              s199.8-90.107,199.8-201.262C497.651,181.913,408.197,91.805,297.851,91.805z M329.892,419.727h-64.7V280.708
              c0-20.073-0.48-32.14-1.442-36.197c-0.959-4.058-3.603-7.126-7.93-9.21c-4.323-2.081-13.961-3.123-28.906-3.123h-6.408v-30.229
              c31.284-6.732,55.041-20.574,71.273-41.523h38.113V419.727z"></path>
      </g>
      </svg>