<svg height="2rem" style="height:2rem;" version="1.1" id="Calque_1" xmlns="http://www.w3.org/2000/svg" xmlns:xlink="http://www.w3.org/1999/xlink" x="0px" y="0px" viewBox="0 33.519 595.28 701.537" enable-background="new 0 33.519 595.28 701.537" xml:space="preserve">
      <g id="XMLID_2_">
          <g id="XMLID_8_">
              <path id="XMLID_61_" fill="#FFFFFF" d="M529.338,180.766C399.002,168.257,297.519,109.5,297.519,109.5
                  s-101.483,58.757-231.818,71.266c0,0-42.1,343.235,231.818,478.843C571.438,524.001,529.338,180.766,529.338,180.766z
                   M460.469,303.539L278.838,485.175c-4.266,4.266-11.246,4.266-15.512,0l-97.068-97.072c-4.266-4.266-4.265-11.246,0.001-15.512
                  l23.112-23.107c4.266-4.265,11.247-4.265,15.513,0.001l58.442,58.446c4.266,4.266,11.246,4.266,15.512,0l143.014-143.01
                  c4.266-4.266,11.246-4.266,15.512,0l23.105,23.105C464.735,292.292,464.735,299.273,460.469,303.539z"></path>
              <g id="XMLID_23_">
                  <path id="XMLID_60_" fill="#FFFFFF" d="M68.322,183.387c130.335-12.509,231.818-71.266,231.818-71.266
                      s100.264,58.023,229.454,71.012c-0.156-1.544-0.256-2.366-0.256-2.366C399.002,168.257,297.519,109.5,297.519,109.5
                      s-101.483,58.757-231.818,71.266c0,0-30.191,246.401,127.204,404.145C38.444,427.074,68.322,183.387,68.322,183.387z"></path>
                  <path id="XMLID_59_" fill="#FFFFFF" d="M265.947,487.795c4.266,4.266,11.246,4.266,15.512,0L463.09,306.16
                      c4.266-4.266,4.266-11.246,0-15.512l-2.621-2.621c4.266,4.266,4.266,11.246,0,15.512L278.838,485.175
                      c-4.266,4.266-11.246,4.266-15.511,0.001L265.947,487.795z"></path>
                  <polygon id="XMLID_46_" fill="#FFFFFF" points="207.504,352.106 263.326,407.931 263.327,407.932 207.504,352.107 			"></polygon>
              </g>
              <path id="XMLID_19_" fill="#FFFFFF" d="M591.565,126.063c-165.321-15.867-294.046-90.396-294.046-90.396
                  S168.795,110.196,3.474,126.063c0,0-53.401,435.37,294.046,607.38C644.966,561.433,591.565,126.063,591.565,126.063z
                   M297.519,682.956C0.35,535.838,46.024,163.468,46.024,163.468c141.398-13.571,251.496-77.315,251.496-77.315
                  s110.097,63.744,251.496,77.315C549.015,163.468,594.689,535.838,297.519,682.956z"></path>
              <g id="XMLID_12_">
                  <path id="XMLID_14_" fill="#FFFFFF" d="M6.095,128.684C171.416,112.816,300.14,38.288,300.14,38.288
                      s127.504,73.81,291.687,90.156c-0.161-1.556-0.262-2.381-0.262-2.381c-165.321-15.867-294.046-90.396-294.046-90.396
                      S168.795,110.196,3.474,126.063c0,0-38.731,315.775,164.395,515.718C-32.287,441.713,6.095,128.684,6.095,128.684z"></path>
                  <path id="XMLID_13_" fill="#FFFFFF" d="M551.336,163.777l-2.321-0.309l0.26,2.38c3.26,31.929,31.529,376.863-251.755,517.108
                      c-45.459-22.505-82.861-50.298-113.665-81.207c31.291,31.963,69.541,60.685,116.286,83.827
                      C597.31,538.458,551.636,166.089,551.636,166.089L551.336,163.777z"></path>
              </g>
          </g>
      </g>
      </svg>